<svg width="63" height="63" viewBox="0 0 63 63" fill="none" xmlns="http://www.w3.org/2000/svg">
<g filter="url(#filter0_d)">
<circle cx="31.5485" cy="27.4515" r="27.4515" fill="#FFBA08"/>
<path d="M39.8647 36.0088C39.8647 36.0669 39.9228 36.0669 39.8647 36.0088C39.9228 36.0088 39.981 36.0088 39.981 36.0088C39.981 36.0088 39.9228 36.0088 39.8647 36.0088Z" fill="white" fill-opacity="0.5"/>
<path d="M38.1792 11.3628C37.5978 11.4209 37.0746 11.5953 36.4933 11.7116C36.2026 11.7697 35.8538 11.7697 35.4468 11.7697C36.3189 12.4092 36.784 12.9324 37.3653 13.1649C37.7722 13.3394 38.3536 12.9324 38.7605 13.0487C40.0977 13.3394 39.5744 12.3511 39.8651 11.5372C39.2256 11.4209 38.7024 11.3046 38.1792 11.3628Z" fill="white" fill-opacity="0.5"/>
<path d="M37.8296 5.37558C36.0277 5.49183 36.6671 3.57363 35.7952 2.75985C35.6208 3.16674 35.5045 3.45738 35.5045 3.51551C34.4583 3.10862 33.5282 2.75985 32.9469 2.52734C31.6681 3.51551 30.68 4.27116 29.7499 5.02682C30.3312 5.78247 30.7962 6.59625 31.4938 7.23565C31.9006 7.64254 32.6563 7.70067 33.2957 7.81693C33.7607 7.93318 34.2257 7.87505 34.6908 7.99131C36.4346 8.3982 37.9459 7.1194 37.8296 5.37558Z" fill="white" fill-opacity="0.5"/>
<path d="M54.8614 18.6288C54.7451 18.3382 54.6289 18.0475 54.5707 17.7569C53.5826 15.2574 52.2456 12.9323 50.6181 10.8979C45.7935 4.85264 38.4114 1.01624 30.1573 1.01624C29.4597 1.01624 28.7041 1.07436 28.0066 1.13249C26.4953 1.24874 25.0421 1.48125 23.5889 1.88814C17.8924 3.34133 12.9516 6.65458 9.46396 11.1885C8.94082 11.8279 8.4758 12.5254 8.01078 13.223C5.97633 16.4781 4.58127 20.3145 4.11625 24.4415C4.05813 25.3716 4 26.2435 4 27.1735C4 41.5891 15.7417 53.3308 30.1573 53.3308C32.2499 53.3308 34.3424 53.0983 36.3188 52.5751C46.5492 50.0757 54.4545 41.6472 56.0239 31.068C56.1983 29.7892 56.3145 28.4523 56.3145 27.1154C56.3145 24.1509 55.7914 21.3027 54.8614 18.6288ZM6.73198 33.7419C5.45318 31.8818 4.98816 30.603 5.22067 29.1498C5.33693 29.0917 5.51131 28.9755 5.62756 28.9173C6.26696 30.0799 6.84824 31.1843 7.54576 32.405C7.197 32.5212 6.09258 31.5331 6.73198 33.7419ZM13.7654 17.5825C13.9398 17.7569 13.8235 18.2219 13.8235 18.5707C13.126 18.3963 12.8935 19.617 12.0216 19.0938C11.8472 18.9776 11.2659 19.4426 10.9753 19.7332C9.69647 20.9539 8.06891 21.3608 6.44135 21.6514C6.32509 21.5352 6.20884 21.3608 6.09258 21.2445C7.42951 19.8495 8.70831 18.4544 9.98711 17.1175C9.69647 16.7687 9.1152 16.3618 8.99895 15.8387C8.94082 15.4899 9.58022 15.0249 9.81273 14.5599C10.0452 14.2111 10.1615 13.8042 10.3359 13.3973C10.5103 12.8742 10.7428 12.3511 11.2078 11.9442C11.1497 12.4092 11.0915 12.8742 10.9753 13.5136C11.4984 13.3392 11.9053 13.1648 12.3122 12.9905C12.3703 13.2811 12.4285 13.5717 12.4866 13.9205C13.0097 13.8042 13.5329 13.7461 14.4048 13.5717C13.9398 14.3274 13.7073 14.7924 13.4166 15.1993C12.7772 16.1293 13.126 16.8269 13.7654 17.5825ZM16.8461 22.4652C17.3111 21.4189 17.0786 20.7795 16.0323 20.3145C15.9161 20.2564 15.9742 19.9076 15.9161 19.3845C17.253 20.082 18.2993 20.6633 19.4619 21.2445C19.2293 21.477 19.055 21.6514 18.9968 21.7095C19.3456 22.4652 19.6362 23.1627 20.0431 24.0928C18.9968 23.8603 18.1831 23.744 17.4274 23.4534C17.1368 23.3952 16.788 22.6977 16.8461 22.4652ZM21.0313 33.335C20.6825 33.2187 20.3338 33.1025 20.0431 32.9281C19.6944 32.7537 19.3456 32.5212 18.7643 32.2306C19.52 31.8237 20.2175 31.4168 21.0894 30.8937C21.2638 31.4749 21.4963 31.8237 21.4382 32.1725C21.4382 32.5212 21.1475 32.9281 21.0313 33.335ZM55.617 29.6149C55.5008 30.4868 55.2683 31.3005 54.7451 32.1143C54.6289 32.2887 54.5126 32.5793 54.5126 32.8119C54.5126 33.8581 54.1638 34.4975 53.0013 34.5557C52.5944 34.5557 52.0131 34.7301 51.8388 35.0207C51.1994 36.2995 50.8506 35.7182 50.4437 35.2532C49.3974 35.1951 48.3511 35.0788 47.4211 35.0207C47.5373 35.3113 47.7117 35.7182 47.8861 36.1251C47.7698 36.2414 47.7117 36.2995 47.5955 36.4157C46.8979 36.0089 46.2004 35.6601 45.8516 35.4857C44.9797 36.1251 44.2822 36.9389 43.5266 37.0551C43.0034 37.1714 42.2477 36.4157 41.6665 36.067C41.7246 36.3576 41.7827 36.8808 41.9571 37.8108C41.0852 37.1133 40.6202 36.7064 39.8645 36.067C39.6901 36.1251 39.5739 36.2414 39.3414 36.2995C39.167 36.2995 38.5276 36.2414 37.7719 36.1832C38.3532 35.4276 38.8182 34.7301 39.3414 34.0325C39.167 33.9744 38.9926 33.9163 38.8182 33.8581C38.9345 33.8581 39.1089 33.8 39.2251 33.8C39.1089 33.2188 39.0507 32.6956 38.9345 32.1143C38.8182 31.7656 38.5857 31.4749 38.5276 31.1262C38.2951 30.0217 37.4232 29.4986 36.3188 29.7311C35.3887 29.9055 34.4006 30.138 33.6449 29.0336C33.3543 28.5686 32.5405 28.4523 31.843 28.1617C32.0173 29.4986 31.4942 29.673 30.5642 29.4405C30.2735 29.3242 29.8666 29.0917 29.6341 29.208C28.7041 29.5567 27.8322 30.0217 26.9021 30.4868C26.9603 29.4986 27.0765 28.6848 27.1347 27.871C25.1002 28.1035 26.7278 26.5341 26.2627 26.1272C26.7859 25.8366 27.2509 25.6041 27.7741 25.3716C27.2509 24.674 26.7859 24.1509 26.3209 23.5115C25.914 23.9765 25.5071 24.6159 24.9839 25.1391C24.6933 25.4297 24.1702 25.7203 23.9377 25.6622C23.5308 25.5459 23.1239 25.0809 22.9495 24.674C22.5426 23.5115 23.647 21.6514 24.8096 21.1864C24.9839 21.1283 25.1002 20.9539 25.5071 20.6051C24.9258 20.6051 24.6933 20.6633 24.4027 20.6633C24.5771 20.1401 24.6933 19.6751 24.8677 19.2101C23.4145 18.4544 22.6589 17.0594 23.182 16.1293C23.9958 16.3037 24.8096 16.7106 25.5652 16.5943C27.2509 16.42 29.2272 16.7687 30.041 14.5018C30.3898 13.5136 31.5523 13.5136 32.3661 14.4436C32.308 12.9323 31.4361 12.0023 30.3317 11.2466C29.6923 10.7816 29.6341 10.4329 30.3317 9.85158C31.3779 8.97967 31.3779 8.04964 30.506 7.35211C29.8085 6.77084 29.2272 6.13144 28.5297 5.43391C28.4716 5.78267 28.4135 6.36395 28.2972 7.23585C27.2509 5.55016 26.4953 6.65458 25.5071 7.06147C24.9839 7.29398 24.1702 7.1196 23.2983 7.1196C23.2401 7.17773 22.9495 7.759 22.717 7.759C20.3919 7.58462 22.1938 8.63091 22.3682 9.09593C22.4845 9.44469 22.7751 9.6772 23.3564 10.3747C22.3101 10.3747 21.6707 10.491 21.0313 10.3747C19.7525 10.1422 18.4737 9.6772 17.3693 10.8979C17.1368 11.1885 16.323 10.956 15.7417 10.956C15.7417 10.8397 15.7417 10.7235 15.6836 10.6072C16.1486 10.3166 16.6136 10.026 17.0786 9.73533C15.9742 8.22402 15.5092 8.22402 14.056 9.73533C14.2885 9.96784 14.6373 10.1422 14.6954 10.3747C14.8117 10.7235 13.3004 11.5373 11.7891 12.1185C11.6728 11.886 11.6728 11.5373 11.4984 11.3629C11.2078 11.0723 10.8009 10.956 10.394 10.956C13.7073 6.94522 18.1831 3.98073 23.2983 2.52754C23.2983 2.76005 23.2983 2.99256 23.3564 3.22507C23.4726 3.57384 23.8795 3.98073 24.1702 4.03885C24.8096 4.09698 25.449 3.86447 26.0884 3.9226C27.0184 3.98073 28.8203 2.93444 28.7622 2.0044C28.7041 1.94627 28.646 1.83002 28.5878 1.65564C29.111 1.59751 29.6341 1.59751 30.1573 1.59751C39.5158 1.59751 47.7117 6.65458 52.1875 14.2111C52.4781 15.083 52.885 15.8968 53.4082 16.5943C54.3964 18.7451 55.0939 21.012 55.4426 23.3952C55.4426 24.4997 55.3264 25.6622 55.5008 26.7666C55.617 27.6385 55.6752 28.4523 55.617 29.2661C55.617 29.3823 55.617 29.4986 55.617 29.6149Z" fill="white" fill-opacity="0.5"/>
</g>
<defs>
<filter id="filter0_d" x="0" y="0" width="63" height="62.9031" filterUnits="userSpaceOnUse" color-interpolation-filters="sRGB">
<feFlood flood-opacity="0" result="BackgroundImageFix"/>
<feColorMatrix in="SourceAlpha" type="matrix" values="0 0 0 0 0 0 0 0 0 0 0 0 0 0 0 0 0 0 127 0"/>
<feOffset dy="4"/>
<feGaussianBlur stdDeviation="2"/>
<feColorMatrix type="matrix" values="0 0 0 0 0 0 0 0 0 0 0 0 0 0 0 0 0 0 0.25 0"/>
<feBlend mode="normal" in2="BackgroundImageFix" result="effect1_dropShadow"/>
<feBlend mode="normal" in="SourceGraphic" in2="effect1_dropShadow" result="shape"/>
</filter>
</defs>
</svg>
